# Blender 3.6.0
# www.blender.org
mtllib TowerPlatform.mtl
o TowerPlatform
v 0.000000 -0.150000 -3.000000
v 0.000000 0.150000 -3.000000
v 0.268918 -0.150000 -2.987923
v 0.268918 0.150000 -2.987923
v 0.535671 -0.150000 -2.951789
v 0.535671 0.150000 -2.951789
v 0.798111 -0.150000 -2.891889
v 0.798111 0.150000 -2.891889
v 1.054124 -0.150000 -2.808705
v 1.054124 0.150000 -2.808705
v 1.301651 -0.150000 -2.702907
v 1.301651 0.150000 -2.702907
v 1.538698 -0.150000 -2.575346
v 1.538698 0.150000 -2.575346
v 1.763356 -0.150000 -2.427051
v 1.763356 0.150000 -2.427051
v 1.973816 -0.150000 -2.259214
v 1.973816 0.150000 -2.259214
v 2.168385 -0.150000 -2.073188
v 2.168385 0.150000 -2.073188
v 2.345494 -0.150000 -1.870470
v 2.345494 0.150000 -1.870470
v 2.503720 -0.150000 -1.652691
v 2.503720 0.150000 -1.652691
v 2.641787 -0.150000 -1.421606
v 2.641787 0.150000 -1.421606
v 2.758583 -0.150000 -1.179075
v 2.758583 0.150000 -1.179075
v 2.853170 -0.150000 -0.927051
v 2.853170 0.150000 -0.927051
v 2.924784 -0.150000 -0.667563
v 2.924784 0.150000 -0.667563
v 2.972849 -0.150000 -0.402700
v 2.972849 0.150000 -0.402700
v 2.996979 -0.150000 -0.134594
v 2.996979 0.150000 -0.134594
v 2.996979 -0.150000 0.134594
v 2.996979 0.150000 0.134594
v 2.972849 -0.150000 0.402700
v 2.972849 0.150000 0.402700
v 2.924784 -0.150000 0.667563
v 2.924784 0.150000 0.667563
v 2.853170 -0.150000 0.927051
v 2.853170 0.150000 0.927051
v 2.758583 -0.150000 1.179075
v 2.758583 0.150000 1.179075
v 2.641787 -0.150000 1.421606
v 2.641787 0.150000 1.421606
v 2.503720 -0.150000 1.652691
v 2.503720 0.150000 1.652691
v 2.345494 -0.150000 1.870470
v 2.345494 0.150000 1.870470
v 2.168385 -0.150000 2.073188
v 2.168385 0.150000 2.073188
v 1.973816 -0.150000 2.259214
v 1.973816 0.150000 2.259214
v 1.763356 -0.150000 2.427051
v 1.763356 0.150000 2.427051
v 1.538698 -0.150000 2.575346
v 1.538698 0.150000 2.575346
v 1.301651 -0.150000 2.702907
v 1.301651 0.150000 2.702907
v 1.054124 -0.150000 2.808705
v 1.054124 0.150000 2.808705
v 0.798111 -0.150000 2.891889
v 0.798111 0.150000 2.891889
v 0.535671 -0.150000 2.951789
v 0.535671 0.150000 2.951789
v 0.268918 -0.150000 2.987923
v 0.268918 0.150000 2.987923
v 0.000000 -0.150000 3.000000
v 0.000000 0.150000 3.000000
v -0.268918 -0.150000 2.987923
v -0.268918 0.150000 2.987923
v -0.535671 -0.150000 2.951789
v -0.535671 0.150000 2.951789
v -0.798111 -0.150000 2.891889
v -0.798111 0.150000 2.891889
v -1.054124 -0.150000 2.808705
v -1.054124 0.150000 2.808705
v -1.301651 -0.150000 2.702907
v -1.301651 0.150000 2.702907
v -1.538698 -0.150000 2.575346
v -1.538698 0.150000 2.575346
v -1.763356 -0.150000 2.427051
v -1.763356 0.150000 2.427051
v -1.973816 -0.150000 2.259214
v -1.973816 0.150000 2.259214
v -2.168385 -0.150000 2.073188
v -2.168385 0.150000 2.073188
v -2.345494 -0.150000 1.870470
v -2.345494 0.150000 1.870470
v -2.503720 -0.150000 1.652691
v -2.503720 0.150000 1.652691
v -2.641787 -0.150000 1.421606
v -2.641787 0.150000 1.421606
v -2.758583 -0.150000 1.179075
v -2.758583 0.150000 1.179075
v -2.853170 -0.150000 0.927051
v -2.853170 0.150000 0.927051
v -2.924784 -0.150000 0.667563
v -2.924784 0.150000 0.667563
v -2.972849 -0.150000 0.402700
v -2.972849 0.150000 0.402700
v -2.996979 -0.150000 0.134594
v -2.996979 0.150000 0.134594
v -2.996979 -0.150000 -0.134594
v -2.996979 0.150000 -0.134594
v -2.972849 -0.150000 -0.402700
v -2.972849 0.150000 -0.402700
v -2.924784 -0.150000 -0.667563
v -2.924784 0.150000 -0.667563
v -2.853170 -0.150000 -0.927051
v -2.853170 0.150000 -0.927051
v -2.758583 -0.150000 -1.179075
v -2.758583 0.150000 -1.179075
v -2.641787 -0.150000 -1.421606
v -2.641787 0.150000 -1.421606
v -2.503720 -0.150000 -1.652691
v -2.503720 0.150000 -1.652691
v -2.345494 -0.150000 -1.870470
v -2.345494 0.150000 -1.870470
v -2.168385 -0.150000 -2.073188
v -2.168385 0.150000 -2.073188
v -1.973816 -0.150000 -2.259214
v -1.973816 0.150000 -2.259214
v -1.763356 -0.150000 -2.427051
v -1.763356 0.150000 -2.427051
v -1.538698 -0.150000 -2.575346
v -1.538698 0.150000 -2.575346
v -1.301651 -0.150000 -2.702907
v -1.301651 0.150000 -2.702907
v -1.054124 -0.150000 -2.808705
v -1.054124 0.150000 -2.808705
v -0.798111 -0.150000 -2.891889
v -0.798111 0.150000 -2.891889
v -0.535671 -0.150000 -2.951789
v -0.535671 0.150000 -2.951789
v -0.268918 -0.150000 -2.987923
v -0.268918 0.150000 -2.987923
vn 0.0449 -0.0000 -0.9990
vn 0.1342 -0.0000 -0.9909
vn 0.2225 -0.0000 -0.9749
vn 0.3090 -0.0000 -0.9511
vn 0.3930 -0.0000 -0.9195
vn 0.4739 -0.0000 -0.8806
vn 0.5509 -0.0000 -0.8346
vn 0.6235 -0.0000 -0.7818
vn 0.6911 -0.0000 -0.7228
vn 0.7531 -0.0000 -0.6579
vn 0.8090 -0.0000 -0.5878
vn 0.8584 -0.0000 -0.5129
vn 0.9010 -0.0000 -0.4339
vn 0.9362 -0.0000 -0.3514
vn 0.9640 -0.0000 -0.2660
vn 0.9839 -0.0000 -0.1786
vn 0.9960 -0.0000 -0.0896
vn 1.0000 -0.0000 -0.0000
vn 0.9960 -0.0000 0.0896
vn 0.9839 -0.0000 0.1786
vn 0.9640 -0.0000 0.2660
vn 0.9362 -0.0000 0.3514
vn 0.9010 -0.0000 0.4339
vn 0.8584 -0.0000 0.5129
vn 0.8090 -0.0000 0.5878
vn 0.7531 -0.0000 0.6579
vn 0.6911 -0.0000 0.7228
vn 0.6235 -0.0000 0.7818
vn 0.5509 -0.0000 0.8346
vn 0.4739 -0.0000 0.8806
vn 0.3930 -0.0000 0.9195
vn 0.3090 -0.0000 0.9511
vn 0.2225 -0.0000 0.9749
vn 0.1342 -0.0000 0.9909
vn 0.0449 -0.0000 0.9990
vn -0.0449 -0.0000 0.9990
vn -0.1342 -0.0000 0.9909
vn -0.2225 -0.0000 0.9749
vn -0.3090 -0.0000 0.9511
vn -0.3930 -0.0000 0.9195
vn -0.4739 -0.0000 0.8806
vn -0.5509 -0.0000 0.8346
vn -0.6235 -0.0000 0.7818
vn -0.6911 -0.0000 0.7228
vn -0.7531 -0.0000 0.6579
vn -0.8090 -0.0000 0.5878
vn -0.8584 -0.0000 0.5129
vn -0.9010 -0.0000 0.4339
vn -0.9362 -0.0000 0.3514
vn -0.9640 -0.0000 0.2660
vn -0.9839 -0.0000 0.1786
vn -0.9960 -0.0000 0.0896
vn -1.0000 -0.0000 -0.0000
vn -0.9960 -0.0000 -0.0896
vn -0.9839 -0.0000 -0.1786
vn -0.9640 -0.0000 -0.2660
vn -0.9362 -0.0000 -0.3514
vn -0.9010 -0.0000 -0.4339
vn -0.8584 -0.0000 -0.5129
vn -0.8090 -0.0000 -0.5878
vn -0.7531 -0.0000 -0.6579
vn -0.6911 -0.0000 -0.7228
vn -0.6235 -0.0000 -0.7818
vn -0.5509 -0.0000 -0.8346
vn -0.4739 -0.0000 -0.8806
vn -0.3930 -0.0000 -0.9195
vn -0.3090 -0.0000 -0.9511
vn -0.2225 -0.0000 -0.9749
vn -0.0000 1.0000 -0.0000
vn -0.1342 -0.0000 -0.9909
vn -0.0449 -0.0000 -0.9990
vn -0.0000 -1.0000 -0.0000
vt 1.000000 0.500000
vt 1.000000 1.000000
vt 0.985714 1.000000
vt 0.985714 0.500000
vt 0.971429 1.000000
vt 0.971429 0.500000
vt 0.957143 1.000000
vt 0.957143 0.500000
vt 0.942857 1.000000
vt 0.942857 0.500000
vt 0.928571 1.000000
vt 0.928571 0.500000
vt 0.914286 1.000000
vt 0.914286 0.500000
vt 0.900000 1.000000
vt 0.900000 0.500000
vt 0.885714 1.000000
vt 0.885714 0.500000
vt 0.871428 1.000000
vt 0.871428 0.500000
vt 0.857143 1.000000
vt 0.857143 0.500000
vt 0.842857 1.000000
vt 0.842857 0.500000
vt 0.828571 1.000000
vt 0.828571 0.500000
vt 0.814285 1.000000
vt 0.814285 0.500000
vt 0.800000 1.000000
vt 0.800000 0.500000
vt 0.785714 1.000000
vt 0.785714 0.500000
vt 0.771428 1.000000
vt 0.771428 0.500000
vt 0.757142 1.000000
vt 0.757142 0.500000
vt 0.742857 1.000000
vt 0.742857 0.500000
vt 0.728571 1.000000
vt 0.728571 0.500000
vt 0.714285 1.000000
vt 0.714285 0.500000
vt 0.699999 1.000000
vt 0.699999 0.500000
vt 0.685714 1.000000
vt 0.685714 0.500000
vt 0.671428 1.000000
vt 0.671428 0.500000
vt 0.657142 1.000000
vt 0.657142 0.500000
vt 0.642856 1.000000
vt 0.642856 0.500000
vt 0.628571 1.000000
vt 0.628571 0.500000
vt 0.614285 1.000000
vt 0.614285 0.500000
vt 0.599999 1.000000
vt 0.599999 0.500000
vt 0.585713 1.000000
vt 0.585713 0.500000
vt 0.571428 1.000000
vt 0.571428 0.500000
vt 0.557142 1.000000
vt 0.557142 0.500000
vt 0.542856 1.000000
vt 0.542856 0.500000
vt 0.528570 1.000000
vt 0.528570 0.500000
vt 0.514285 1.000000
vt 0.514285 0.500000
vt 0.499999 1.000000
vt 0.499999 0.500000
vt 0.485713 1.000000
vt 0.485713 0.500000
vt 0.471428 1.000000
vt 0.471428 0.500000
vt 0.457142 1.000000
vt 0.457142 0.500000
vt 0.442856 1.000000
vt 0.442856 0.500000
vt 0.428570 1.000000
vt 0.428570 0.500000
vt 0.414285 1.000000
vt 0.414285 0.500000
vt 0.399999 1.000000
vt 0.399999 0.500000
vt 0.385713 1.000000
vt 0.385713 0.500000
vt 0.371428 1.000000
vt 0.371428 0.500000
vt 0.357142 1.000000
vt 0.357142 0.500000
vt 0.342856 1.000000
vt 0.342856 0.500000
vt 0.328570 1.000000
vt 0.328570 0.500000
vt 0.314285 1.000000
vt 0.314285 0.500000
vt 0.299999 1.000000
vt 0.299999 0.500000
vt 0.285713 1.000000
vt 0.285713 0.500000
vt 0.271428 1.000000
vt 0.271428 0.500000
vt 0.257142 1.000000
vt 0.257142 0.500000
vt 0.242856 1.000000
vt 0.242856 0.500000
vt 0.228570 1.000000
vt 0.228570 0.500000
vt 0.214285 1.000000
vt 0.214285 0.500000
vt 0.199999 1.000000
vt 0.199999 0.500000
vt 0.185713 1.000000
vt 0.185713 0.500000
vt 0.171428 1.000000
vt 0.171428 0.500000
vt 0.157142 1.000000
vt 0.157142 0.500000
vt 0.142856 1.000000
vt 0.142856 0.500000
vt 0.128570 1.000000
vt 0.128570 0.500000
vt 0.114285 1.000000
vt 0.114285 0.500000
vt 0.099999 1.000000
vt 0.099999 0.500000
vt 0.085713 1.000000
vt 0.085713 0.500000
vt 0.071428 1.000000
vt 0.071428 0.500000
vt 0.057142 1.000000
vt 0.057142 0.500000
vt 0.042856 1.000000
vt 0.042856 0.500000
vt 0.028570 1.000000
vt 0.028570 0.500000
vt 0.271513 0.489034
vt 0.250000 0.490000
vt 0.228487 0.489034
vt 0.207146 0.486143
vt 0.186151 0.481351
vt 0.165670 0.474696
vt 0.145868 0.466233
vt 0.126904 0.456028
vt 0.108932 0.444164
vt 0.092095 0.430737
vt 0.076529 0.415855
vt 0.062360 0.399638
vt 0.049702 0.382215
vt 0.038657 0.363728
vt 0.029313 0.344326
vt 0.021746 0.324164
vt 0.016017 0.303405
vt 0.012172 0.282216
vt 0.010242 0.260768
vt 0.010242 0.239232
vt 0.012172 0.217784
vt 0.016017 0.196595
vt 0.021746 0.175836
vt 0.029313 0.155674
vt 0.038657 0.136272
vt 0.049702 0.117785
vt 0.062360 0.100362
vt 0.076529 0.084145
vt 0.092095 0.069263
vt 0.108932 0.055836
vt 0.126904 0.043972
vt 0.145868 0.033767
vt 0.165670 0.025304
vt 0.186151 0.018649
vt 0.207146 0.013857
vt 0.228487 0.010966
vt 0.250000 0.010000
vt 0.271513 0.010966
vt 0.292854 0.013857
vt 0.313849 0.018649
vt 0.334330 0.025304
vt 0.354132 0.033767
vt 0.373096 0.043972
vt 0.391068 0.055836
vt 0.407905 0.069263
vt 0.423471 0.084145
vt 0.437640 0.100362
vt 0.450298 0.117785
vt 0.461343 0.136272
vt 0.470687 0.155674
vt 0.478254 0.175836
vt 0.483983 0.196595
vt 0.487828 0.217784
vt 0.489758 0.239232
vt 0.489758 0.260768
vt 0.487828 0.282216
vt 0.483983 0.303405
vt 0.478254 0.324164
vt 0.470687 0.344326
vt 0.461343 0.363728
vt 0.450298 0.382215
vt 0.437640 0.399638
vt 0.423471 0.415855
vt 0.407905 0.430737
vt 0.391068 0.444164
vt 0.373096 0.456028
vt 0.354132 0.466233
vt 0.334330 0.474696
vt 0.313849 0.481351
vt 0.292854 0.486143
vt 0.014285 1.000000
vt 0.014285 0.500000
vt -0.000001 1.000000
vt -0.000001 0.500000
vt 0.750000 0.490000
vt 0.771513 0.489034
vt 0.792854 0.486143
vt 0.813849 0.481351
vt 0.834330 0.474696
vt 0.854132 0.466233
vt 0.873096 0.456028
vt 0.891068 0.444164
vt 0.907905 0.430737
vt 0.923471 0.415855
vt 0.937640 0.399638
vt 0.950298 0.382215
vt 0.961343 0.363728
vt 0.970687 0.344326
vt 0.978254 0.324164
vt 0.983983 0.303405
vt 0.987828 0.282216
vt 0.989758 0.260768
vt 0.989758 0.239232
vt 0.987828 0.217784
vt 0.983983 0.196595
vt 0.978254 0.175836
vt 0.970687 0.155674
vt 0.961343 0.136272
vt 0.950298 0.117785
vt 0.937640 0.100362
vt 0.923471 0.084145
vt 0.907905 0.069263
vt 0.891068 0.055836
vt 0.873096 0.043972
vt 0.854132 0.033767
vt 0.834330 0.025304
vt 0.813849 0.018649
vt 0.792854 0.013857
vt 0.771513 0.010966
vt 0.750000 0.010000
vt 0.728487 0.010966
vt 0.707146 0.013857
vt 0.686151 0.018649
vt 0.665670 0.025304
vt 0.645868 0.033767
vt 0.626904 0.043972
vt 0.608932 0.055836
vt 0.592095 0.069263
vt 0.576529 0.084145
vt 0.562360 0.100362
vt 0.549702 0.117785
vt 0.538657 0.136272
vt 0.529313 0.155674
vt 0.521746 0.175836
vt 0.516017 0.196595
vt 0.512172 0.217784
vt 0.510242 0.239232
vt 0.510242 0.260768
vt 0.512172 0.282216
vt 0.516017 0.303405
vt 0.521746 0.324164
vt 0.529313 0.344326
vt 0.538657 0.363728
vt 0.549702 0.382215
vt 0.562360 0.399638
vt 0.576529 0.415855
vt 0.592095 0.430737
vt 0.608932 0.444164
vt 0.626904 0.456028
vt 0.645868 0.466233
vt 0.665670 0.474696
vt 0.686151 0.481351
vt 0.707146 0.486143
vt 0.728487 0.489034
s 0
f 1/1/1 2/2/1 4/3/1 3/4/1
f 3/4/2 4/3/2 6/5/2 5/6/2
f 5/6/3 6/5/3 8/7/3 7/8/3
f 7/8/4 8/7/4 10/9/4 9/10/4
f 9/10/5 10/9/5 12/11/5 11/12/5
f 11/12/6 12/11/6 14/13/6 13/14/6
f 13/14/7 14/13/7 16/15/7 15/16/7
f 15/16/8 16/15/8 18/17/8 17/18/8
f 17/18/9 18/17/9 20/19/9 19/20/9
f 19/20/10 20/19/10 22/21/10 21/22/10
f 21/22/11 22/21/11 24/23/11 23/24/11
f 23/24/12 24/23/12 26/25/12 25/26/12
f 25/26/13 26/25/13 28/27/13 27/28/13
f 27/28/14 28/27/14 30/29/14 29/30/14
f 29/30/15 30/29/15 32/31/15 31/32/15
f 31/32/16 32/31/16 34/33/16 33/34/16
f 33/34/17 34/33/17 36/35/17 35/36/17
f 35/36/18 36/35/18 38/37/18 37/38/18
f 37/38/19 38/37/19 40/39/19 39/40/19
f 39/40/20 40/39/20 42/41/20 41/42/20
f 41/42/21 42/41/21 44/43/21 43/44/21
f 43/44/22 44/43/22 46/45/22 45/46/22
f 45/46/23 46/45/23 48/47/23 47/48/23
f 47/48/24 48/47/24 50/49/24 49/50/24
f 49/50/25 50/49/25 52/51/25 51/52/25
f 51/52/26 52/51/26 54/53/26 53/54/26
f 53/54/27 54/53/27 56/55/27 55/56/27
f 55/56/28 56/55/28 58/57/28 57/58/28
f 57/58/29 58/57/29 60/59/29 59/60/29
f 59/60/30 60/59/30 62/61/30 61/62/30
f 61/62/31 62/61/31 64/63/31 63/64/31
f 63/64/32 64/63/32 66/65/32 65/66/32
f 65/66/33 66/65/33 68/67/33 67/68/33
f 67/68/34 68/67/34 70/69/34 69/70/34
f 69/70/35 70/69/35 72/71/35 71/72/35
f 71/72/36 72/71/36 74/73/36 73/74/36
f 73/74/37 74/73/37 76/75/37 75/76/37
f 75/76/38 76/75/38 78/77/38 77/78/38
f 77/78/39 78/77/39 80/79/39 79/80/39
f 79/80/40 80/79/40 82/81/40 81/82/40
f 81/82/41 82/81/41 84/83/41 83/84/41
f 83/84/42 84/83/42 86/85/42 85/86/42
f 85/86/43 86/85/43 88/87/43 87/88/43
f 87/88/44 88/87/44 90/89/44 89/90/44
f 89/90/45 90/89/45 92/91/45 91/92/45
f 91/92/46 92/91/46 94/93/46 93/94/46
f 93/94/47 94/93/47 96/95/47 95/96/47
f 95/96/48 96/95/48 98/97/48 97/98/48
f 97/98/49 98/97/49 100/99/49 99/100/49
f 99/100/50 100/99/50 102/101/50 101/102/50
f 101/102/51 102/101/51 104/103/51 103/104/51
f 103/104/52 104/103/52 106/105/52 105/106/52
f 105/106/53 106/105/53 108/107/53 107/108/53
f 107/108/54 108/107/54 110/109/54 109/110/54
f 109/110/55 110/109/55 112/111/55 111/112/55
f 111/112/56 112/111/56 114/113/56 113/114/56
f 113/114/57 114/113/57 116/115/57 115/116/57
f 115/116/58 116/115/58 118/117/58 117/118/58
f 117/118/59 118/117/59 120/119/59 119/120/59
f 119/120/60 120/119/60 122/121/60 121/122/60
f 121/122/61 122/121/61 124/123/61 123/124/61
f 123/124/62 124/123/62 126/125/62 125/126/62
f 125/126/63 126/125/63 128/127/63 127/128/63
f 127/128/64 128/127/64 130/129/64 129/130/64
f 129/130/65 130/129/65 132/131/65 131/132/65
f 131/132/66 132/131/66 134/133/66 133/134/66
f 133/134/67 134/133/67 136/135/67 135/136/67
f 135/136/68 136/135/68 138/137/68 137/138/68
f 4/139/69 2/140/69 140/141/69 138/142/69 136/143/69 134/144/69 132/145/69 130/146/69 128/147/69 126/148/69 124/149/69 122/150/69 120/151/69 118/152/69 116/153/69 114/154/69 112/155/69 110/156/69 108/157/69 106/158/69 104/159/69 102/160/69 100/161/69 98/162/69 96/163/69 94/164/69 92/165/69 90/166/69 88/167/69 86/168/69 84/169/69 82/170/69 80/171/69 78/172/69 76/173/69 74/174/69 72/175/69 70/176/69 68/177/69 66/178/69 64/179/69 62/180/69 60/181/69 58/182/69 56/183/69 54/184/69 52/185/69 50/186/69 48/187/69 46/188/69 44/189/69 42/190/69 40/191/69 38/192/69 36/193/69 34/194/69 32/195/69 30/196/69 28/197/69 26/198/69 24/199/69 22/200/69 20/201/69 18/202/69 16/203/69 14/204/69 12/205/69 10/206/69 8/207/69 6/208/69
f 137/138/70 138/137/70 140/209/70 139/210/70
f 139/210/71 140/209/71 2/211/71 1/212/71
f 1/213/72 3/214/72 5/215/72 7/216/72 9/217/72 11/218/72 13/219/72 15/220/72 17/221/72 19/222/72 21/223/72 23/224/72 25/225/72 27/226/72 29/227/72 31/228/72 33/229/72 35/230/72 37/231/72 39/232/72 41/233/72 43/234/72 45/235/72 47/236/72 49/237/72 51/238/72 53/239/72 55/240/72 57/241/72 59/242/72 61/243/72 63/244/72 65/245/72 67/246/72 69/247/72 71/248/72 73/249/72 75/250/72 77/251/72 79/252/72 81/253/72 83/254/72 85/255/72 87/256/72 89/257/72 91/258/72 93/259/72 95/260/72 97/261/72 99/262/72 101/263/72 103/264/72 105/265/72 107/266/72 109/267/72 111/268/72 113/269/72 115/270/72 117/271/72 119/272/72 121/273/72 123/274/72 125/275/72 127/276/72 129/277/72 131/278/72 133/279/72 135/280/72 137/281/72 139/282/72
